<?xml version="1.0" encoding="UTF-8"?>
<!DOCTYPE svg PUBLIC "-//W3C//DTD SVG 1.1//EN" "http://www.w3.org/Graphics/SVG/1.1/DTD/svg11.dtd">
<svg xmlns="http://www.w3.org/2000/svg" version="1.1" width="512px" height="512px" style="shape-rendering:geometricPrecision; text-rendering:geometricPrecision; image-rendering:optimizeQuality; fill-rule:evenodd; clip-rule:evenodd" xmlns:xlink="http://www.w3.org/1999/xlink">
<g><path style="opacity:0.959" fill="#000000" d="M 378.5,46.5 C 403.714,44.1772 421.214,54.5106 431,77.5C 433.826,86.4111 434.159,95.4111 432,104.5C 428.547,113.406 424.547,122.073 420,130.5C 405.167,158.833 390.333,187.167 375.5,215.5C 385.486,232.263 388.986,250.263 386,269.5C 368.463,330.82 342.463,388.154 308,441.5C 298.681,452.828 286.848,456.995 272.5,454C 236.317,441.574 202.317,424.908 170.5,404C 147.274,388.551 124.94,371.884 103.5,354C 94,345.833 85.1667,337 77,327.5C 68.6753,309.308 73.842,296.475 92.5,289C 127.567,282.63 158.567,267.964 185.5,245C 203.895,227.274 221.561,208.941 238.5,190C 254.966,177.399 273.632,170.732 294.5,170C 312.667,135.167 330.833,100.333 349,65.5C 356.634,55.6897 366.467,49.3564 378.5,46.5 Z M 384.5,74.5 C 399.16,75.3225 405.66,82.9892 404,97.5C 387.859,129.783 371.192,161.783 354,193.5C 343.718,187.944 333.551,182.278 323.5,176.5C 339.589,145.99 355.422,115.323 371,84.5C 374.061,79.0688 378.561,75.7355 384.5,74.5 Z M 284.5,199.5 C 293.428,198.839 302.095,200.005 310.5,203C 320.817,207.824 330.817,213.158 340.5,219C 355.593,232.278 361.093,248.778 357,268.5C 354.469,275.091 352.136,281.758 350,288.5C 313.579,269.039 277.079,249.706 240.5,230.5C 250.811,213.836 265.478,203.503 284.5,199.5 Z M 218.5,252.5 C 259.396,272.615 299.729,293.781 339.5,316C 325.445,355.451 306.445,392.117 282.5,426C 280.087,426.484 277.754,426.15 275.5,425C 265.904,421.533 256.571,417.533 247.5,413C 256.826,402.675 264.993,391.508 272,379.5C 274.665,368.145 270.332,361.478 259,359.5C 255.616,360.072 252.449,361.239 249.5,363C 241.192,376.648 231.358,389.148 220,400.5C 205.33,392 190.996,383 177,373.5C 176.333,372.833 176.333,372.167 177,371.5C 183.084,368.418 187.417,363.751 190,357.5C 191.161,346.997 186.495,341.331 176,340.5C 173.409,340.565 170.909,341.065 168.5,342C 162.914,346.751 156.914,350.918 150.5,354.5C 134.755,342.614 119.755,329.781 105.5,316C 149.828,306.182 187.495,285.016 218.5,252.5 Z"/></g>
<g><path style="opacity:0.945" fill="#000000" d="M 117.5,161.5 C 133.487,163.452 140.32,172.452 138,188.5C 130.968,202.4 120.468,205.9 106.5,199C 95.5143,188.172 95.181,177.172 105.5,166C 109.301,163.584 113.301,162.084 117.5,161.5 Z"/></g>
<g><path style="opacity:0.944" fill="#000000" d="M 57.5,223.5 C 70.7919,220.89 79.6252,225.89 84,238.5C 84.482,258.347 74.982,266.18 55.5,262C 43.1916,253.93 40.6916,243.43 48,230.5C 50.7901,227.535 53.9567,225.202 57.5,223.5 Z"/></g>
</svg>
