<?xml version="1.0" encoding="UTF-8"?>
<!DOCTYPE svg PUBLIC "-//W3C//DTD SVG 1.1//EN" "http://www.w3.org/Graphics/SVG/1.1/DTD/svg11.dtd">
<svg xmlns="http://www.w3.org/2000/svg" version="1.1" width="512px" height="512px" style="shape-rendering:geometricPrecision; text-rendering:geometricPrecision; image-rendering:optimizeQuality; fill-rule:evenodd; clip-rule:evenodd" xmlns:xlink="http://www.w3.org/1999/xlink">
<g><path style="opacity:0.985" fill="#fefefe" d="M 382.5,45.5 C 408.672,45.8468 425.505,58.5134 433,83.5C 435.114,96.374 432.781,108.374 426,119.5C 409.167,151.667 392.333,183.833 375.5,216C 386.312,233.064 389.812,251.564 386,271.5C 368.134,331.554 342.467,387.887 309,440.5C 299.175,453.666 286.342,458.166 270.5,454C 227.095,438.135 186.761,416.801 149.5,390C 130.301,376.473 111.968,361.807 94.5,346C 87.9679,339.802 81.8013,333.302 76,326.5C 68.8768,310.501 73.0434,298.334 88.5,290C 125.377,283.223 158.044,267.89 186.5,244C 204.895,226.274 222.561,207.941 239.5,189C 255.749,176.86 274.082,170.36 294.5,169.5C 312.333,135.167 330.167,100.833 348,66.5C 356.645,54.6651 368.145,47.6651 382.5,45.5 Z M 381.5,75.5 C 397.31,73.8141 404.81,80.8141 404,96.5C 387.771,129.061 371.104,161.395 354,193.5C 344.232,187.364 334.066,181.864 323.5,177C 339.872,145.088 356.372,113.255 373,81.5C 375.637,79.109 378.47,77.109 381.5,75.5 Z M 288.5,199.5 C 297.553,199.548 306.219,201.381 314.5,205C 322.009,209.255 329.676,213.255 337.5,217C 355.201,230.768 361.368,248.601 356,270.5C 353.929,276.215 351.762,281.882 349.5,287.5C 312.85,268.843 276.517,249.676 240.5,230C 246.888,222.279 253.888,215.279 261.5,209C 269.896,203.827 278.896,200.66 288.5,199.5 Z M 218.5,252.5 C 259.095,273.131 299.429,294.298 339.5,316C 326.802,349.228 311.302,381.061 293,411.5C 289.61,416.46 286.11,421.293 282.5,426C 270.397,423.127 258.731,418.794 247.5,413C 257.551,402.282 266.051,390.449 273,377.5C 274.082,366.988 269.415,360.988 259,359.5C 253.555,359.723 249.221,362.057 246,366.5C 239.164,378.996 230.497,389.996 220,399.5C 204.929,391.383 190.429,382.383 176.5,372.5C 182.191,368.976 186.691,364.309 190,358.5C 191.529,346.055 186.029,339.888 173.5,340C 167.316,342.848 161.649,346.515 156.5,351C 154.086,352.885 151.419,353.552 148.5,353C 133.736,341.737 119.736,329.571 106.5,316.5C 150.252,305.97 187.585,284.637 218.5,252.5 Z"/></g>
<g><path style="opacity:0.974" fill="#fdfdfd" d="M 113.5,161.5 C 132.564,161.393 140.731,170.727 138,189.5C 131.114,202.738 120.948,206.238 107.5,200C 95.0585,189.359 94.3918,178.026 105.5,166C 108.099,164.205 110.766,162.705 113.5,161.5 Z"/></g>
<g><path style="opacity:0.974" fill="#fdfdfd" d="M 59.5,222.5 C 74.1268,222.127 82.7935,229.127 85.5,243.5C 81.8242,261 71.4908,267.167 54.5,262C 42.9883,254.105 40.4883,243.939 47,231.5C 50.651,227.609 54.8176,224.609 59.5,222.5 Z"/></g>
</svg>
