<?xml version="1.0" encoding="UTF-8"?>
<!DOCTYPE svg PUBLIC "-//W3C//DTD SVG 1.1//EN" "http://www.w3.org/Graphics/SVG/1.1/DTD/svg11.dtd">
<svg xmlns="http://www.w3.org/2000/svg" version="1.1" width="563px" height="563px" style="shape-rendering:geometricPrecision; text-rendering:geometricPrecision; image-rendering:optimizeQuality; fill-rule:evenodd; clip-rule:evenodd" xmlns:xlink="http://www.w3.org/1999/xlink">
<g><path style="opacity:0.996" fill="#fefefe" d="M 509.5,23.5 C 523.006,22.838 532.172,28.838 537,41.5C 537.695,51.6913 535.695,61.358 531,70.5C 522.19,87.6253 512.19,103.959 501,119.5C 466.716,164.785 432.049,209.785 397,254.5C 374.574,280.93 351.408,306.763 327.5,332C 326.833,332.667 326.167,332.667 325.5,332C 306.219,295.719 278.552,267.719 242.5,248C 241.549,247.282 241.383,246.449 242,245.5C 279.139,207.361 316.639,169.528 354.5,132C 388.91,99.2408 425.91,69.9075 465.5,44C 479.108,34.6932 493.775,27.8599 509.5,23.5 Z"/></g>
<g><path style="opacity:0.993" fill="#fefefe" d="M 219.5,268.5 C 258.344,286.511 286.678,315.011 304.5,354C 288.951,369.385 272.951,384.218 256.5,398.5C 246.881,368.065 228.548,344.565 201.5,328C 192.924,323.867 184.257,320.034 175.5,316.5C 189.82,300.18 204.487,284.18 219.5,268.5 Z"/></g>
<g><path style="opacity:0.994" fill="#fefefe" d="M 138.5,339.5 C 184.312,341.493 214.479,364.16 229,407.5C 235.544,433.021 232.544,457.354 220,480.5C 212.785,492.048 203.285,501.215 191.5,508C 158.156,525.921 122.489,535.588 84.5,537C 63.9607,538.017 43.6274,537.017 23.5,534C 31.3645,523.439 37.5312,511.939 42,499.5C 44.8985,489.341 46.8985,479.007 48,468.5C 49.3334,450.496 50.6668,432.496 52,414.5C 60.6124,378.554 82.4457,354.721 117.5,343C 124.581,341.443 131.581,340.276 138.5,339.5 Z"/></g>
</svg>
