<?xml version="1.0" encoding="UTF-8"?>
<!DOCTYPE svg PUBLIC "-//W3C//DTD SVG 1.1//EN" "http://www.w3.org/Graphics/SVG/1.1/DTD/svg11.dtd">
<svg xmlns="http://www.w3.org/2000/svg" version="1.1" width="563px" height="563px" style="shape-rendering:geometricPrecision; text-rendering:geometricPrecision; image-rendering:optimizeQuality; fill-rule:evenodd; clip-rule:evenodd" xmlns:xlink="http://www.w3.org/1999/xlink">
<g><path style="opacity:0.984" fill="#000000" d="M 506.5,24.5 C 530.64,23.478 540.14,34.8114 535,58.5C 530.663,70.8405 524.996,82.5071 518,93.5C 466.197,167.732 410.531,239.065 351,307.5C 342.613,316.229 334.113,324.395 325.5,332C 306.219,295.719 278.552,267.719 242.5,248C 241.549,247.282 241.383,246.449 242,245.5C 288.892,196.608 337.058,149.108 386.5,103C 410.985,82.8459 436.318,63.8459 462.5,46C 476.317,36.9241 490.984,29.7574 506.5,24.5 Z"/></g>
<g><path style="opacity:0.969" fill="#000000" d="M 219.5,268.5 C 257.095,286.262 284.929,313.928 303,351.5C 303.667,352.833 303.667,354.167 303,355.5C 287.405,369.717 271.905,384.05 256.5,398.5C 243.569,357.236 216.569,329.902 175.5,316.5C 189.82,300.18 204.487,284.18 219.5,268.5 Z"/></g>
<g><path style="opacity:0.988" fill="#000000" d="M 130.5,340.5 C 174.687,338.324 206.187,356.991 225,396.5C 234.496,423.595 233.496,450.262 222,476.5C 214.983,488.393 205.816,498.226 194.5,506C 162.623,524.222 128.289,534.222 91.5,536C 75.8333,536.667 60.1667,536.667 44.5,536C 37.7263,535.874 31.0596,535.041 24.5,533.5C 28.3333,527.167 32.1667,520.833 36,514.5C 43.6163,498.369 47.9497,481.369 49,463.5C 49.9723,447.831 50.9723,432.164 52,416.5C 61.6938,373.97 87.8605,348.637 130.5,340.5 Z"/></g>
</svg>
