<?xml version="1.0" encoding="UTF-8"?>
<!DOCTYPE svg PUBLIC "-//W3C//DTD SVG 1.1//EN" "http://www.w3.org/Graphics/SVG/1.1/DTD/svg11.dtd">
<svg xmlns="http://www.w3.org/2000/svg" version="1.1" width="563px" height="563px" style="shape-rendering:geometricPrecision; text-rendering:geometricPrecision; image-rendering:optimizeQuality; fill-rule:evenodd; clip-rule:evenodd" xmlns:xlink="http://www.w3.org/1999/xlink">
<g><path style="opacity:0.963" fill="#000000" d="M 258.5,24.5 C 357.091,20.0382 435.258,57.3715 493,136.5C 542.396,214.47 550.063,296.47 516,382.5C 473.137,472.711 401.97,523.877 302.5,536C 203.885,540.949 125.718,503.782 68,424.5C 18.6037,346.53 10.937,264.53 45,178.5C 88.0827,88.3633 159.249,37.03 258.5,24.5 Z M 259.5,55.5 C 356.597,51.2852 429.763,90.6186 479,173.5C 510.632,236.339 513.965,300.672 489,366.5C 460.214,431.977 411.714,475.477 343.5,497C 267.169,516.935 198.169,502.602 136.5,454C 77.6192,402.703 50.7859,337.87 56,259.5C 65.83,180.613 104.997,121.446 173.5,82C 200.639,67.7838 229.306,58.9505 259.5,55.5 Z"/></g>
</svg>
