<?xml version="1.0" encoding="UTF-8"?>
<!DOCTYPE svg PUBLIC "-//W3C//DTD SVG 1.1//EN" "http://www.w3.org/Graphics/SVG/1.1/DTD/svg11.dtd">
<svg xmlns="http://www.w3.org/2000/svg" version="1.1" width="563px" height="563px" style="shape-rendering:geometricPrecision; text-rendering:geometricPrecision; image-rendering:optimizeQuality; fill-rule:evenodd; clip-rule:evenodd" xmlns:xlink="http://www.w3.org/1999/xlink">
<g><path style="opacity:0.986" fill="#fefefe" d="M 252.5,24.5 C 343.816,17.7532 419.316,48.7532 479,117.5C 534.763,189.038 550.429,268.705 526,356.5C 500.541,431.96 451.374,485.794 378.5,518C 329.592,537.443 279.258,542.109 227.5,532C 140.846,511.008 79.3459,459.842 43,378.5C 23.5572,329.592 18.8906,279.258 29,227.5C 49.9918,140.846 101.158,79.3459 182.5,43C 205.209,33.9911 228.542,27.8245 252.5,24.5 Z M 266.5,55.5 C 355.553,53.7687 424.387,89.7687 473,163.5C 508.936,226.392 514.936,292.058 491,360.5C 461.406,432.09 409.24,478.256 334.5,499C 248.678,516.942 175.178,494.776 114,432.5C 56.0674,363.597 41.4007,286.264 70,200.5C 98.734,130.207 149.567,84.3739 222.5,63C 237.124,59.3709 251.79,56.8709 266.5,55.5 Z"/></g>
</svg>
