<?xml version="1.0" standalone="no"?>
<!DOCTYPE svg PUBLIC "-//W3C//DTD SVG 20010904//EN"
 "http://www.w3.org/TR/2001/REC-SVG-20010904/DTD/svg10.dtd">
<svg version="1.0" xmlns="http://www.w3.org/2000/svg"
 width="512.000000pt" height="512.000000pt" viewBox="0 0 512.000000 512.000000"
 preserveAspectRatio="xMidYMid meet">

<g transform="translate(0.000000,512.000000) scale(0.100000,-0.100000)"
fill="#000000" stroke="none">
<path d="M910 4674 c-177 -47 -335 -175 -415 -339 -70 -141 -66 -20 -63 -1801
l3 -1609 26 -67 c74 -190 207 -323 397 -397 l67 -26 1625 0 1625 0 70 22 c188
60 337 204 414 401 l26 67 0 1635 0 1635 -26 67 c-74 191 -206 323 -397 397
l-67 26 -1615 2 c-1384 2 -1623 0 -1670 -13z m3198 -416 c64 -16 134 -86 150
-150 17 -67 17 -3029 0 -3096 -16 -64 -86 -134 -150 -150 -67 -17 -3029 -17
-3096 0 -64 16 -134 86 -150 150 -9 35 -12 432 -12 1551 0 1695 -6 1574 76
1645 24 22 61 45 82 50 57 15 3040 15 3100 0z"/>
<path d="M1648 3618 c-21 -5 -58 -28 -83 -50 -73 -64 -91 -164 -48 -253 9 -16
178 -193 376 -392 l362 -363 -362 -362 c-198 -200 -367 -376 -376 -393 -42
-87 -27 -176 43 -245 69 -70 158 -85 245 -43 17 9 193 178 393 376 l362 362
363 -362 c199 -198 376 -367 392 -376 87 -42 176 -27 245 43 70 69 85 158 43
245 -9 17 -178 193 -376 393 l-362 362 362 363 c198 199 367 376 376 392 42
87 27 176 -43 245 -69 70 -158 85 -245 43 -16 -9 -193 -178 -392 -376 l-363
-362 -362 362 c-200 198 -377 368 -393 376 -42 21 -113 28 -157 15z"/>
</g>
</svg>
