<?xml version="1.0" encoding="UTF-8"?>
<!DOCTYPE svg PUBLIC "-//W3C//DTD SVG 1.1//EN" "http://www.w3.org/Graphics/SVG/1.1/DTD/svg11.dtd">
<svg xmlns="http://www.w3.org/2000/svg" version="1.1" width="512px" height="512px" style="shape-rendering:geometricPrecision; text-rendering:geometricPrecision; image-rendering:optimizeQuality; fill-rule:evenodd; clip-rule:evenodd" xmlns:xlink="http://www.w3.org/1999/xlink">
<g><path style="opacity:0.961" fill="#fefefe" d="M 252.5,32.5 C 263.589,32.4256 270.422,37.7589 273,48.5C 273.906,59.5591 273.573,70.5591 272,81.5C 265.373,93.0537 256.206,95.5537 244.5,89C 240.908,85.9843 238.742,82.151 238,77.5C 237.094,66.4409 237.427,55.4409 239,44.5C 241.858,38.466 246.358,34.466 252.5,32.5 Z"/></g>
<g><path style="opacity:0.964" fill="#fefefe" d="M 106.5,92.5 C 111.548,92.127 116.215,93.2936 120.5,96C 129.402,104.232 137.569,113.066 145,122.5C 147.099,131.117 144.599,137.95 137.5,143C 131.167,146.333 124.833,146.333 118.5,143C 109.969,134.803 101.802,126.303 94,117.5C 90.7508,105.331 94.9175,96.998 106.5,92.5 Z"/></g>
<g><path style="opacity:0.964" fill="#fefffe" d="M 399.5,92.5 C 415.952,95.7452 421.119,105.079 415,120.5C 407.5,128 400,135.5 392.5,143C 377.487,148.663 368.487,143.663 365.5,128C 365.565,125.409 366.065,122.909 367,120.5C 374.469,112.03 382.302,103.863 390.5,96C 393.459,94.3957 396.459,93.2291 399.5,92.5 Z"/></g>
<g><path style="opacity:0.985" fill="#fefefe" d="M 253.5,107.5 C 317.204,109.915 363.037,139.581 391,196.5C 412.805,253.209 404.805,305.209 367,352.5C 317.885,402.925 260.385,415.425 194.5,390C 138.784,362.79 110.117,317.956 108.5,255.5C 110.123,192.032 139.457,146.866 196.5,120C 215.001,112.936 234.001,108.769 253.5,107.5 Z M 237.5,162.5 C 249.37,160.753 256.036,165.753 257.5,177.5C 245.784,210.193 254.784,235.359 284.5,253C 300.299,259.2 315.966,258.867 331.5,252C 345.027,252.205 350.527,259.039 348,272.5C 336.458,321.043 305.792,346.71 256,349.5C 196.778,344.992 165.278,313.159 161.5,254C 164.882,205.129 190.215,174.629 237.5,162.5 Z"/></g>
<g><path style="opacity:0.972" fill="#fefefe" d="M 223.5,204.5 C 224.117,204.611 224.617,204.944 225,205.5C 229.812,254.646 256.812,281.313 306,285.5C 300.585,296.577 292.085,304.744 280.5,310C 248.724,321.296 223.224,313.13 204,285.5C 188.853,253.031 195.353,226.031 223.5,204.5 Z"/></g>
<g><path style="opacity:0.961" fill="#fefefe" d="M 48.5,237.5 C 58.1724,237.334 67.8391,237.5 77.5,238C 91.892,242.613 96.0587,251.779 90,265.5C 86.8349,269.666 82.6682,272.166 77.5,273C 67.8333,273.667 58.1667,273.667 48.5,273C 34.3043,269.109 29.8043,260.275 35,246.5C 38.4011,241.557 42.9011,238.557 48.5,237.5 Z"/></g>
<g><path style="opacity:0.961" fill="#fefefe" d="M 433.5,237.5 C 443.172,237.334 452.839,237.5 462.5,238C 476.696,241.891 481.196,250.725 476,264.5C 472.753,269.43 468.253,272.264 462.5,273C 452.833,273.667 443.167,273.667 433.5,273C 419.108,268.387 414.941,259.221 421,245.5C 424.378,241.406 428.545,238.739 433.5,237.5 Z"/></g>
<g><path style="opacity:0.964" fill="#fefffe" d="M 123.5,365.5 C 136.342,364.516 143.675,370.349 145.5,383C 145.435,385.591 144.935,388.091 144,390.5C 136.531,398.97 128.698,407.137 120.5,415C 105.671,421.084 96.3378,416.251 92.5,400.5C 93.1058,396.972 94.2725,393.639 96,390.5C 103.5,383 111,375.5 118.5,368C 120.315,367.243 121.981,366.41 123.5,365.5 Z"/></g>
<g><path style="opacity:0.964" fill="#fefefe" d="M 377.5,365.5 C 382.777,364.931 387.777,365.765 392.5,368C 400,375.5 407.5,383 415,390.5C 421.5,404 417.666,413.167 403.5,418C 398.819,418.665 394.486,417.665 390.5,415C 381.598,406.768 373.431,397.934 366,388.5C 364.029,377.776 367.862,370.109 377.5,365.5 Z"/></g>
<g><path style="opacity:0.961" fill="#fefefe" d="M 250.5,418.5 C 262.323,417.154 269.823,422.154 273,433.5C 273.906,444.559 273.573,455.559 272,466.5C 263.292,480.674 252.958,482.008 241,470.5C 239.438,468.043 238.438,465.376 238,462.5C 237.094,451.441 237.427,440.441 239,429.5C 241.437,424.226 245.271,420.56 250.5,418.5 Z"/></g>
</svg>
