<?xml version="1.0" encoding="UTF-8"?>
<!DOCTYPE svg PUBLIC "-//W3C//DTD SVG 1.1//EN" "http://www.w3.org/Graphics/SVG/1.1/DTD/svg11.dtd">
<svg xmlns="http://www.w3.org/2000/svg" version="1.1" width="563px" height="563px" style="shape-rendering:geometricPrecision; text-rendering:geometricPrecision; image-rendering:optimizeQuality; fill-rule:evenodd; clip-rule:evenodd" xmlns:xlink="http://www.w3.org/1999/xlink">
<g><path style="opacity:0.965" fill="#000000" d="M 365.5,41.5 C 397.382,42.2195 416.215,58.2195 422,89.5C 422.629,115.857 410.796,134.023 386.5,144C 360.661,150.723 340.161,143.223 325,121.5C 310.902,91.4704 317.402,66.9704 344.5,48C 351.292,44.7258 358.292,42.5591 365.5,41.5 Z M 366.5,75.5 C 384.644,76.8019 391.144,86.1352 386,103.5C 378.485,113.141 369.318,114.975 358.5,109C 348.648,97.9976 349.315,87.6642 360.5,78C 362.723,77.4338 364.723,76.6005 366.5,75.5 Z"/></g>
<g><path style="opacity:0.963" fill="#000000" d="M 294.5,91.5 C 310.813,93.9979 315.979,102.998 310,118.5C 307.635,121.869 304.468,124.036 300.5,125C 250.667,134.833 200.833,144.667 151,154.5C 134.615,151.063 129.948,141.73 137,126.5C 139.626,123.769 142.793,121.936 146.5,121C 196.002,111.333 245.335,101.5 294.5,91.5 Z"/></g>
<g><path style="opacity:0.965" fill="#000000" d="M 69.5,99.5 C 92.0527,98.1933 109.553,106.86 122,125.5C 133.539,150.437 129.706,172.604 110.5,192C 88.4156,208.305 66.0823,208.638 43.5,193C 24.2722,175.204 19.4389,154.037 29,129.5C 37.8883,113.091 51.3883,103.091 69.5,99.5 Z M 71.5,133.5 C 90.0331,133.528 97.1997,142.528 93,160.5C 85.8149,170.893 76.6483,173.059 65.5,167C 57.208,159.671 55.708,151.171 61,141.5C 63.94,137.963 67.44,135.297 71.5,133.5 Z"/></g>
<g><path style="opacity:0.961" fill="#000000" d="M 393.5,150.5 C 402.977,149.833 409.477,153.833 413,162.5C 433.333,218.167 453.667,273.833 474,329.5C 475.302,346.089 467.802,352.922 451.5,350C 447,348.167 443.833,345 442,340.5C 420.741,283.15 399.908,225.65 379.5,168C 380.39,158.962 385.056,153.128 393.5,150.5 Z"/></g>
<g><path style="opacity:0.963" fill="#000000" d="M 72.5,213.5 C 84.4039,212.015 91.5705,217.015 94,228.5C 95.008,283.498 95.3414,338.498 95,393.5C 90.5574,404.322 82.7241,407.822 71.5,404C 63.6059,399.036 60.4392,391.87 62,382.5C 61.1956,330.167 60.8623,277.834 61,225.5C 63.0188,219.65 66.8522,215.65 72.5,213.5 Z"/></g>
<g><path style="opacity:0.966" fill="#000000" d="M 476.5,355.5 C 507.28,354.127 527.113,368.127 536,397.5C 538.892,434.608 521.892,455.608 485,460.5C 456.69,458.693 439.357,444.027 433,416.5C 430.845,384.104 445.345,363.77 476.5,355.5 Z M 479.5,389.5 C 492.924,388.256 500.924,394.256 503.5,407.5C 500.664,422.08 491.997,427.914 477.5,425C 467.216,419.249 464.049,410.749 468,399.5C 470.818,394.839 474.651,391.505 479.5,389.5 Z"/></g>
<g><path style="opacity:0.965" fill="#000000" d="M 407.5,401.5 C 423.381,403.597 428.881,412.264 424,427.5C 421.337,431.161 417.837,433.661 413.5,435C 329.516,447.426 245.516,459.76 161.5,472C 145.161,473.994 137.661,466.827 139,450.5C 141.797,444.03 146.63,440.197 153.5,439C 238.343,426.714 323.009,414.214 407.5,401.5 Z"/></g>
<g><path style="opacity:0.965" fill="#000000" d="M 72.5,414.5 C 108.795,413.798 128.795,431.464 132.5,467.5C 128.83,498.504 111.496,515.837 80.5,519.5C 51.7795,517.414 34.2795,502.414 28,474.5C 26.5945,442.266 41.4278,422.266 72.5,414.5 Z M 74.5,448.5 C 90.0447,447.154 97.878,454.154 98,469.5C 93.5273,483.486 84.3606,487.986 70.5,483C 60.8587,475.485 59.0254,466.318 65,455.5C 67.7901,452.535 70.9567,450.202 74.5,448.5 Z"/></g>
</svg>
