<?xml version="1.0" encoding="UTF-8"?>
<!DOCTYPE svg PUBLIC "-//W3C//DTD SVG 1.1//EN" "http://www.w3.org/Graphics/SVG/1.1/DTD/svg11.dtd">
<svg xmlns="http://www.w3.org/2000/svg" version="1.1" width="563px" height="563px" style="shape-rendering:geometricPrecision; text-rendering:geometricPrecision; image-rendering:optimizeQuality; fill-rule:evenodd; clip-rule:evenodd" xmlns:xlink="http://www.w3.org/1999/xlink">
<g><path style="opacity:0.988" fill="#fefefe" d="M 361.5,41.5 C 393.351,40.1697 413.517,54.8364 422,85.5C 424.416,110.838 414.583,129.671 392.5,142C 361.982,152.938 338.482,144.438 322,116.5C 311.601,88.7915 318.434,66.2915 342.5,49C 348.604,45.5833 354.937,43.0833 361.5,41.5 Z M 364.5,76.5 C 381.811,75.311 389.311,83.311 387,100.5C 379.672,112.79 369.839,115.29 357.5,108C 349.083,97.7362 349.75,88.0696 359.5,79C 361.315,78.2432 362.981,77.4098 364.5,76.5 Z"/></g>
<g><path style="opacity:0.983" fill="#fefefe" d="M 291.5,91.5 C 309.312,91.8018 315.812,100.468 311,117.5C 307.908,121.928 303.741,124.761 298.5,126C 250.854,135.441 203.187,144.774 155.5,154C 142.52,155.847 134.853,150.347 132.5,137.5C 133.23,129.606 137.23,124.106 144.5,121C 193.644,111.205 242.644,101.371 291.5,91.5 Z"/></g>
<g><path style="opacity:0.988" fill="#fefefe" d="M 66.5,99.5 C 97.8274,97.0717 118.327,110.738 128,140.5C 131.764,173.726 117.598,194.893 85.5,204C 60.369,206.851 41.5357,197.351 29,175.5C 17.8566,146.6 25.0233,123.434 50.5,106C 55.7441,103.315 61.0775,101.148 66.5,99.5 Z M 74.5,133.5 C 91.7363,135.632 97.5697,144.965 92,161.5C 85.5608,169.519 77.3941,171.686 67.5,168C 57.8587,160.485 56.0254,151.318 62,140.5C 65.4641,136.69 69.6308,134.356 74.5,133.5 Z"/></g>
<g><path style="opacity:0.985" fill="#fefefe" d="M 391.5,150.5 C 401.529,148.776 408.696,152.443 413,161.5C 434.134,219.069 454.967,276.735 475.5,334.5C 471.832,349.333 462.832,354.167 448.5,349C 445.96,346.795 443.793,344.295 442,341.5C 420.264,283.789 399.43,225.789 379.5,167.5C 380.389,159.615 384.389,153.948 391.5,150.5 Z"/></g>
<g><path style="opacity:0.984" fill="#fefefe" d="M 74.5,212.5 C 83.8113,212.649 90.3113,216.982 94,225.5C 95.3043,280.83 95.971,336.163 96,391.5C 91.3133,404.758 82.48,408.591 69.5,403C 65.8062,400.313 63.3062,396.813 62,392.5C 60.942,337.828 60.2753,283.162 60,228.5C 61.9469,220.393 66.7802,215.06 74.5,212.5 Z"/></g>
<g><path style="opacity:0.988" fill="#fefefe" d="M 482.5,354.5 C 507.92,355.624 525.42,367.958 535,391.5C 541.635,424.737 529.135,447.237 497.5,459C 470.581,463.622 450.414,454.122 437,430.5C 426.164,402.007 433.331,379.174 458.5,362C 466.165,357.942 474.165,355.442 482.5,354.5 Z M 481.5,389.5 C 496.67,389.833 503.503,397.5 502,412.5C 500.601,418.9 496.767,423.066 490.5,425C 473.886,427.293 466.053,420.126 467,403.5C 469.124,395.874 473.957,391.207 481.5,389.5 Z"/></g>
<g><path style="opacity:0.982" fill="#fefefe" d="M 403.5,401.5 C 419.157,400.658 426.657,407.992 426,423.5C 423.623,430.545 418.79,434.712 411.5,436C 325.999,448.5 240.499,461 155,473.5C 141.62,470.717 136.287,462.717 139,449.5C 141.468,444.011 145.635,440.511 151.5,439C 235.674,426.714 319.674,414.214 403.5,401.5 Z"/></g>
<g><path style="opacity:0.988" fill="#fefefe" d="M 77.5,413.5 C 110.587,415.922 128.921,433.588 132.5,466.5C 131.195,490.94 119.195,507.773 96.5,517C 63.9557,523.98 41.4557,512.147 29,481.5C 23.0561,449.553 35.2228,427.72 65.5,416C 69.6372,415.161 73.6372,414.327 77.5,413.5 Z M 76.5,448.5 C 94.0161,449.519 100.516,458.519 96,475.5C 89.8869,484.374 81.7203,486.874 71.5,483C 60.0586,474.351 58.7252,464.351 67.5,453C 70.324,450.921 73.324,449.421 76.5,448.5 Z"/></g>
</svg>
