<?xml version="1.0" encoding="UTF-8"?>
<!DOCTYPE svg PUBLIC "-//W3C//DTD SVG 1.1//EN" "http://www.w3.org/Graphics/SVG/1.1/DTD/svg11.dtd">
<svg xmlns="http://www.w3.org/2000/svg" version="1.1" width="563px" height="563px" style="shape-rendering:geometricPrecision; text-rendering:geometricPrecision; image-rendering:optimizeQuality; fill-rule:evenodd; clip-rule:evenodd" xmlns:xlink="http://www.w3.org/1999/xlink">
<g><path style="opacity:0.999" fill="#000000" d="M 33.5,115.5 C 198.914,115.003 364.247,115.503 529.5,117C 532.473,118.765 534.64,121.265 536,124.5C 536.995,229.247 536.662,333.914 535,438.5C 533.235,441.473 530.735,443.64 527.5,445C 362.087,445.997 196.753,445.664 31.5,444C 28.527,442.235 26.3604,439.735 25,436.5C 24.3333,332.5 24.3333,228.5 25,124.5C 26.6878,120.315 29.5212,117.315 33.5,115.5 Z M 54.5,145.5 C 205.167,145.5 355.833,145.5 506.5,145.5C 506.5,235.5 506.5,325.5 506.5,415.5C 355.833,415.5 205.167,415.5 54.5,415.5C 54.5,325.5 54.5,235.5 54.5,145.5 Z"/></g>
</svg>
