<?xml version="1.0" encoding="UTF-8"?>
<!DOCTYPE svg PUBLIC "-//W3C//DTD SVG 1.1//EN" "http://www.w3.org/Graphics/SVG/1.1/DTD/svg11.dtd">
<svg xmlns="http://www.w3.org/2000/svg" version="1.1" width="563px" height="563px" style="shape-rendering:geometricPrecision; text-rendering:geometricPrecision; image-rendering:optimizeQuality; fill-rule:evenodd; clip-rule:evenodd" xmlns:xlink="http://www.w3.org/1999/xlink">
<g><path style="opacity:0.975" fill="#fefefe" d="M 35.5,114.5 C 198.834,114.333 362.167,114.5 525.5,115C 530.598,116.433 534.098,119.6 536,124.5C 536.667,228.5 536.667,332.5 536,436.5C 534.098,441.4 530.598,444.567 525.5,446C 362.167,446.667 198.833,446.667 35.5,446C 30.4018,444.567 26.9018,441.4 25,436.5C 24.3333,332.5 24.3333,228.5 25,124.5C 27.0808,119.584 30.5808,116.25 35.5,114.5 Z M 55.5,146.5 C 205.5,146.5 355.5,146.5 505.5,146.5C 505.5,235.833 505.5,325.167 505.5,414.5C 355.5,414.5 205.5,414.5 55.5,414.5C 55.5,325.167 55.5,235.833 55.5,146.5 Z"/></g>
</svg>
