<?xml version="1.0" encoding="UTF-8"?>
<!DOCTYPE svg PUBLIC "-//W3C//DTD SVG 1.1//EN" "http://www.w3.org/Graphics/SVG/1.1/DTD/svg11.dtd">
<svg xmlns="http://www.w3.org/2000/svg" version="1.1" width="563px" height="563px" style="shape-rendering:geometricPrecision; text-rendering:geometricPrecision; image-rendering:optimizeQuality; fill-rule:evenodd; clip-rule:evenodd" xmlns:xlink="http://www.w3.org/1999/xlink">
<g><path style="opacity:0.985" fill="#fefefe" d="M 275.5,34.5 C 288.989,33.6599 299.156,38.9933 306,50.5C 325.371,96.0732 344.871,141.573 364.5,187C 415.102,192.176 465.768,197.176 516.5,202C 533.088,208.672 539.588,220.839 536,238.5C 534.503,242.165 532.503,245.498 530,248.5C 491.993,281.676 454.16,315.01 416.5,348.5C 428.226,398.57 439.559,448.737 450.5,499C 448.329,515.837 438.829,525.337 422,527.5C 416.102,526.867 410.602,525.034 405.5,522C 363.99,497.151 322.49,472.317 281,447.5C 237.101,473.201 193.267,499.034 149.5,525C 135.202,529.567 123.702,525.734 115,513.5C 112.496,508.985 110.996,504.151 110.5,499C 121.766,448.445 132.933,397.945 144,347.5C 105.036,313.538 66.3693,279.205 28,244.5C 19.1774,224.62 24.6774,210.453 44.5,202C 95.2431,197.296 145.91,192.296 196.5,187C 216.462,140.907 236.296,94.7399 256,48.5C 261.012,41.6391 267.512,36.9724 275.5,34.5 Z M 279.5,78.5 C 280.75,78.5774 281.583,79.244 282,80.5C 300.192,124.547 319.192,168.214 339,211.5C 343.513,216.341 349.013,219.508 355.5,221C 402.161,225.393 448.827,229.727 495.5,234C 461.463,264.373 427.129,294.373 392.5,324C 382.349,333.762 379.516,345.262 384,358.5C 393.584,401.094 403.418,443.594 413.5,486C 374.189,463.833 335.189,440.833 296.5,417C 286.662,411.457 276.662,411.124 266.5,416C 226.917,439.708 187.417,463.541 148,487.5C 157.728,442.869 167.728,398.203 178,353.5C 180.632,341.731 177.466,331.898 168.5,324C 133.871,294.373 99.5373,264.373 65.5,234C 112.173,229.727 158.839,225.393 205.5,221C 216.795,218.373 224.295,211.54 228,200.5C 245.455,159.927 262.622,119.261 279.5,78.5 Z"/></g>
</svg>
