<?xml version="1.0" encoding="UTF-8"?>
<!DOCTYPE svg PUBLIC "-//W3C//DTD SVG 1.1//EN" "http://www.w3.org/Graphics/SVG/1.1/DTD/svg11.dtd">
<svg xmlns="http://www.w3.org/2000/svg" version="1.1" width="563px" height="563px" style="shape-rendering:geometricPrecision; text-rendering:geometricPrecision; image-rendering:optimizeQuality; fill-rule:evenodd; clip-rule:evenodd" xmlns:xlink="http://www.w3.org/1999/xlink">
<g><path style="opacity:0.965" fill="#000000" d="M 272.5,35.5 C 285.526,33.2763 296.026,37.2763 304,47.5C 324.038,94.4066 344.204,141.24 364.5,188C 415.87,192.7 467.204,197.7 518.5,203C 533.449,209.729 539.282,221.229 536,237.5C 534.463,241.537 532.296,245.204 529.5,248.5C 492.148,281.686 454.648,314.686 417,347.5C 427.66,397.815 438.494,448.149 449.5,498.5C 447.581,518.47 436.581,527.637 416.5,526C 411.611,524.557 406.945,522.557 402.5,520C 362.201,495.199 321.535,471.032 280.5,447.5C 237.393,472.764 194.393,498.264 151.5,524C 134.033,530.008 121.199,524.842 113,508.5C 111.561,503.238 111.228,497.904 112,492.5C 123.318,444.237 133.985,395.903 144,347.5C 105.369,313.871 67.0361,279.871 29,245.5C 24.2354,236.968 23.2354,227.968 26,218.5C 30.2742,209.275 37.4409,203.775 47.5,202C 97.1849,197.514 146.852,192.847 196.5,188C 215.796,143.24 234.962,98.4064 254,53.5C 257.441,44.5567 263.608,38.5567 272.5,35.5 Z M 279.5,77.5 C 280.75,77.5774 281.583,78.244 282,79.5C 299.667,121.167 317.333,162.833 335,204.5C 339.776,214.265 347.609,219.765 358.5,221C 404.221,224.853 449.887,229.187 495.5,234C 461.129,264.706 426.463,295.039 391.5,325C 384.12,332.347 381.287,341.18 383,351.5C 393.524,396.792 403.524,442.125 413,487.5C 371.88,462.356 330.38,437.856 288.5,414C 279.651,411.835 271.318,413.168 263.5,418C 225,441.167 186.5,464.333 148,487.5C 157.476,442.125 167.476,396.792 178,351.5C 179.713,341.18 176.88,332.347 169.5,325C 134.537,295.039 99.8705,264.706 65.5,234C 110.778,229.247 156.111,224.914 201.5,221C 211.759,220.12 219.592,215.286 225,206.5C 243.465,163.598 261.632,120.598 279.5,77.5 Z"/></g>
</svg>
