<?xml version="1.0" encoding="UTF-8"?>
<!DOCTYPE svg PUBLIC "-//W3C//DTD SVG 1.1//EN" "http://www.w3.org/Graphics/SVG/1.1/DTD/svg11.dtd">
<svg xmlns="http://www.w3.org/2000/svg" version="1.1" width="538px" height="538px" style="shape-rendering:geometricPrecision; text-rendering:geometricPrecision; image-rendering:optimizeQuality; fill-rule:evenodd; clip-rule:evenodd" xmlns:xlink="http://www.w3.org/1999/xlink">
<g><path style="opacity:0.987" fill="#000000" d="M 178.5,54.5 C 194.111,53.7811 203.111,61.1145 205.5,76.5C 202.836,87.8216 200.17,99.155 197.5,110.5C 197.549,114.104 199.216,116.604 202.5,118C 252.833,118.333 303.167,118.667 353.5,119C 424.472,125.379 475.972,160.212 508,223.5C 537.54,294.867 528.207,360.534 480,420.5C 446.101,457.698 403.934,478.198 353.5,482C 294.833,482.667 236.167,482.667 177.5,482C 157.98,478.813 145.814,467.646 141,448.5C 137.801,422.384 148.635,405.218 173.5,397C 230.167,396.667 286.833,396.333 343.5,396C 384.227,394.232 413.394,375.065 431,338.5C 447.073,292.615 436.573,254.115 399.5,223C 382.963,211.599 364.629,205.599 344.5,205C 296.788,204.02 249.121,204.353 201.5,206C 199.129,207.743 197.795,210.077 197.5,213C 200.361,224.808 203.028,236.641 205.5,248.5C 201.944,263.952 192.278,270.452 176.5,268C 123.377,238.606 70.7099,208.439 18.5,177.5C 12.3705,170.118 10.8705,161.784 14,152.5C 15.0608,149.438 16.8941,146.938 19.5,145C 72.2695,114.286 125.269,84.1195 178.5,54.5 Z"/></g>
</svg>
