<?xml version="1.0" encoding="UTF-8"?>
<!DOCTYPE svg PUBLIC "-//W3C//DTD SVG 1.1//EN" "http://www.w3.org/Graphics/SVG/1.1/DTD/svg11.dtd">
<svg xmlns="http://www.w3.org/2000/svg" version="1.1" width="538px" height="538px" style="shape-rendering:geometricPrecision; text-rendering:geometricPrecision; image-rendering:optimizeQuality; fill-rule:evenodd; clip-rule:evenodd" xmlns:xlink="http://www.w3.org/1999/xlink">
<g><path style="opacity:0.994" fill="#fefefe" d="M 177.5,54.5 C 189.629,52.9808 198.463,57.6475 204,68.5C 205.457,72.7411 205.791,77.0745 205,81.5C 202.578,91.3546 200.078,101.188 197.5,111C 198.106,114.554 200.106,116.888 203.5,118C 255.833,118.333 308.167,118.667 360.5,119C 419.696,126.332 465.53,154.832 498,204.5C 523.579,246.738 531.246,292.071 521,340.5C 506.302,397.859 472.469,439.693 419.5,466C 400.729,474.609 381.063,479.943 360.5,482C 298.5,482.667 236.5,482.667 174.5,482C 146.27,472.751 135.437,453.584 142,424.5C 148.697,409.132 160.197,399.632 176.5,396C 235.5,395.667 294.5,395.333 353.5,395C 406.164,385.498 434.497,353.998 438.5,300.5C 434.499,247.004 406.166,215.504 353.5,206C 303.167,205.333 252.833,205.333 202.5,206C 199.528,207.141 197.861,209.308 197.5,212.5C 199.997,222.49 202.497,232.49 205,242.5C 206.138,258.365 198.804,267.365 183,269.5C 177.399,268.953 172.233,267.119 167.5,264C 117.67,235.586 68.0033,206.919 18.5,178C 12.7317,170.86 10.8983,162.694 13,153.5C 14.7379,149.759 17.2379,146.592 20.5,144C 72.928,114.126 125.261,84.2923 177.5,54.5 Z"/></g>
</svg>
